<svg viewBox="0 0 199 14" xmlns="http://www.w3.org/2000/svg" fill-rule="evenodd" clip-rule="evenodd" stroke-linejoin="round" stroke-miterlimit="2"><path d="M.008 11V4.4h1.284v1.26c.064-.432.248-.768.552-1.008.312-.248.716-.372 1.212-.372.656 0 1.18.212 1.572.636.392.416.588.98.588 1.692V11H3.92V6.8c0-.456-.116-.804-.348-1.044-.232-.248-.548-.372-.948-.372-.408 0-.732.128-.972.384-.232.256-.348.612-.348 1.068V11H.008zm9.787.12c-.808 0-1.456-.236-1.944-.708S7.12 9.296 7.12 8.48V6.92c0-.816.244-1.46.732-1.932s1.136-.708 1.944-.708c.544 0 1.016.108 1.416.324.4.208.708.504.924.888.224.384.336.832.336 1.344v1.188H8.367v.54c0 .464.128.824.384 1.08.256.256.604.384 1.044.384.36 0 .66-.064.9-.192.24-.136.384-.32.432-.552h1.284c-.088.56-.372 1.008-.852 1.344-.472.328-1.06.492-1.764.492zM8.367 6.836v.276h2.856v-.288c0-.488-.124-.864-.372-1.128-.248-.264-.6-.396-1.056-.396-.456 0-.808.136-1.056.408-.248.264-.372.64-.372 1.128zM14.723 11l-1.056-6.6h1.068l.624 4.344c.032.216.06.452.084.708.024.248.04.452.048.612l.06-.612c.024-.256.056-.492.096-.708l.768-4.344h1.164l.768 4.344c.032.216.06.452.084.708.032.248.056.452.072.612.016-.16.032-.364.048-.612.024-.256.052-.492.084-.708l.648-4.344h1.032L19.223 11h-1.368l-.696-4.308c-.04-.224-.076-.472-.108-.744a70.886 70.886 0 0 0-.06-.648c-.008.16-.032.376-.072.648-.032.272-.064.52-.096.744L16.103 11h-1.38zm9.559.12c-.824 0-1.48-.228-1.968-.684-.48-.464-.72-1.088-.72-1.872V4.676c0-.792.24-1.416.72-1.872.488-.456 1.144-.684 1.968-.684.816 0 1.464.232 1.944.696.488.456.732 1.076.732 1.86h-1.296c0-.456-.124-.804-.372-1.044-.24-.24-.576-.36-1.008-.36-.44 0-.784.12-1.032.36-.24.24-.36.588-.36 1.044v3.888c0 .456.12.804.36 1.044.248.24.592.36 1.032.36.432 0 .768-.12 1.008-.36.248-.24.372-.588.372-1.044h1.296c0 .784-.244 1.408-.732 1.872-.48.456-1.128.684-1.944.684zm7.1-.012c-.817 0-1.469-.236-1.957-.708-.48-.472-.72-1.116-.72-1.932V6.932c0-.824.24-1.468.72-1.932.48-.472 1.132-.708 1.956-.708.824 0 1.476.236 1.956.708.48.464.72 1.108.72 1.932v1.536c0 .816-.244 1.46-.732 1.932-.48.472-1.128.708-1.944.708h.001zm0-1.14c.431 0 .767-.12 1.007-.36.248-.248.372-.6.372-1.056V6.848c0-.456-.124-.804-.372-1.044-.24-.248-.576-.372-1.008-.372-.432 0-.772.124-1.02.372-.24.24-.36.588-.36 1.044v1.704c0 .456.12.808.36 1.056.248.24.588.36 1.02.36h.001zM35.984 11V4.4h1.284v1.26c.064-.432.248-.768.552-1.008.312-.248.716-.372 1.212-.372.656 0 1.18.212 1.572.636.392.416.588.98.588 1.692V11h-1.296V6.8c0-.456-.116-.804-.348-1.044-.232-.248-.548-.372-.948-.372-.408 0-.732.128-.972.384-.232.256-.348.612-.348 1.068V11h-1.296zm10.447 0c-.584 0-1.048-.168-1.392-.504-.344-.336-.516-.792-.516-1.368V5.576h-1.86V4.4h1.86V2.54h1.296V4.4h2.664v1.176H45.82v3.54c0 .208.06.38.18.516.12.128.284.192.492.192h1.932V11h-1.993zm6.535.12c-.808 0-1.456-.236-1.944-.708s-.732-1.116-.732-1.932V6.92c0-.816.244-1.46.732-1.932s1.136-.708 1.944-.708c.544 0 1.016.108 1.416.324.4.208.708.504.924.888.224.384.336.832.336 1.344v1.188H51.54v.54c0 .464.128.824.384 1.08.256.256.604.384 1.044.384.36 0 .66-.064.9-.192.24-.136.384-.32.432-.552h1.284c-.088.56-.372 1.008-.852 1.344-.472.328-1.06.492-1.764.492h-.002zM51.54 6.836v.276h2.856v-.288c0-.488-.124-.864-.372-1.128-.248-.264-.6-.396-1.056-.396-.456 0-.808.136-1.056.408-.248.264-.372.64-.372 1.128zM57.08 11l2.316-3.408L57.221 4.4h1.489l1.163 1.824c.056.096.112.2.168.312.056.104.1.192.133.264.024-.072.06-.16.108-.264.053-.108.114-.212.18-.312L61.614 4.4h1.5l-2.171 3.204L63.245 11h-1.488l-1.284-1.98a3.964 3.964 0 0 1-.167-.324l-.133-.288c-.04.072-.087.168-.143.288-.056.12-.117.228-.18.324L58.566 11h-1.488.002zm10.939 0c-.584 0-1.048-.168-1.392-.504-.344-.336-.516-.792-.516-1.368V5.576h-1.86V4.4h1.86V2.54h1.296V4.4h2.664v1.176h-2.664v3.54c0 .208.06.38.18.516.12.128.284.192.492.192h1.932V11h-1.992zm78.584.12c-.824 0-1.484-.228-1.98-.684-.496-.456-.744-1.08-.744-1.872V6.836c0-.792.248-1.416.744-1.872.496-.456 1.156-.684 1.98-.684.8 0 1.44.208 1.92.624.48.416.736.984.768 1.704h-1.284c-.024-.376-.164-.668-.42-.876-.248-.208-.576-.312-.984-.312-.44 0-.788.124-1.044.372-.256.24-.384.584-.384 1.032v1.74c0 .456.128.808.384 1.056.256.24.604.36 1.044.36.416 0 .748-.104.996-.312.248-.208.384-.504.408-.888h1.284c-.032.72-.288 1.292-.768 1.716-.48.416-1.12.624-1.92.624zm7.1-.012c-.816 0-1.468-.236-1.956-.708-.48-.472-.72-1.116-.72-1.932V6.932c0-.824.24-1.468.72-1.932.48-.472 1.132-.708 1.956-.708.824 0 1.476.236 1.956.708.48.464.72 1.108.72 1.932v1.536c0 .816-.244 1.46-.732 1.932-.48.472-1.128.708-1.944.708zm0-1.14c.432 0 .768-.12 1.008-.36.248-.248.372-.6.372-1.056V6.848c0-.456-.124-.804-.372-1.044-.24-.248-.576-.372-1.008-.372-.432 0-.772.124-1.02.372-.24.24-.36.588-.36 1.044v1.704c0 .456.12.808.36 1.056.248.24.588.36 1.02.36zM158.305 11V4.4h1.284v1.26c.064-.432.248-.768.552-1.008.312-.248.716-.372 1.212-.372.656 0 1.18.212 1.572.636.392.416.588.98.588 1.692V11h-1.296V6.8c0-.456-.116-.804-.348-1.044-.232-.248-.548-.372-.948-.372-.408 0-.732.128-.972.384-.232.256-.348.612-.348 1.068V11h-1.296zm10.447 0c-.584 0-1.048-.168-1.392-.504-.344-.336-.516-.792-.516-1.368V5.576h-1.86V4.4h1.86V2.54h1.296V4.4h2.664v1.176h-2.664v3.54c0 .208.06.38.18.516.12.128.284.192.492.192h1.932V11h-1.992zm6.536.12c-.808 0-1.456-.236-1.944-.708s-.732-1.116-.732-1.932V6.92c0-.816.244-1.46.732-1.932s1.136-.708 1.944-.708c.544 0 1.016.108 1.416.324.4.208.708.504.924.888.224.384.336.832.336 1.344v1.188h-4.104v.54c0 .464.128.824.384 1.08.256.256.604.384 1.044.384.36 0 .66-.064.9-.192.24-.136.384-.32.432-.552h1.284c-.088.56-.372 1.008-.852 1.344-.472.328-1.06.492-1.764.492zm-1.428-4.284v.276h2.856v-.288c0-.488-.124-.864-.372-1.128-.248-.264-.6-.396-1.056-.396-.456 0-.808.136-1.056.408-.248.264-.372.64-.372 1.128zM179.399 11l2.316-3.408-2.172-3.192h1.488l1.164 1.824c.056.096.112.2.168.312.056.104.1.192.132.264.024-.072.06-.16.108-.264.053-.108.114-.212.18-.312l1.152-1.824h1.5l-2.172 3.204L185.567 11h-1.488l-1.284-1.98a3.974 3.974 0 0 1-.168-.324l-.132-.288c-.04.072-.088.168-.144.288-.056.12-.116.228-.18.324L180.887 11h-1.488zm10.939 0c-.584 0-1.048-.168-1.392-.504-.344-.336-.516-.792-.516-1.368V5.576h-1.86V4.4h1.86V2.54h1.296V4.4h2.664v1.176h-2.664v3.54c0 .208.06.38.18.516.12.128.284.192.492.192h1.932V11h-1.992z" fill="#ffbc2c" fill-rule="nonzero"/><path d="M79.156 6.164V4.988h5.196v1.176h-5.196zm0 2.916V7.904h5.196V9.08h-5.196z" fill-rule="nonzero"/><path d="M93.547 13.16V4.4h1.284v1.248c.088-.432.288-.768.6-1.008.32-.24.72-.36 1.2-.36.656 0 1.18.228 1.572.684.392.448.588 1.048.588 1.8v1.86c0 .76-.196 1.368-.588 1.824-.392.448-.916.672-1.572.672-.48 0-.88-.124-1.2-.372-.32-.256-.524-.604-.612-1.044h-.012l.036 1.572v1.884h-1.296zm2.628-3.168c.416 0 .74-.108.972-.324.232-.224.348-.58.348-1.068V6.788c0-.48-.116-.828-.348-1.044-.232-.224-.556-.336-.972-.336-.416 0-.744.128-.984.384-.232.248-.348.6-.348 1.056V8.54c0 .464.116.824.348 1.08.24.248.568.372.984.372zM104.354 11c-.624 0-1.124-.18-1.5-.54-.368-.368-.552-.856-.552-1.464v-5.58h-2.22V2.24h3.516v6.732c0 .264.072.472.216.624.144.152.34.228.588.228h1.992V11h-2.04zm6.164.12c-.8 0-1.436-.228-1.908-.684-.464-.464-.696-1.092-.696-1.884V4.4h1.296v4.14c0 .448.116.804.348 1.068.232.256.552.384.96.384.416 0 .74-.128.972-.384.24-.264.36-.62.36-1.068V4.4h1.296v4.152c0 .792-.24 1.42-.72 1.884-.472.456-1.108.684-1.908.684zm5.479 2.04v-1.116h1.86c.36 0 .644-.1.852-.3.208-.2.312-.472.312-.816v-.492l.024-1.104c-.089.37-.311.695-.624.912-.304.216-.684.324-1.14.324-.68 0-1.216-.22-1.608-.66-.392-.44-.588-1.044-.588-1.812V6.764c0-.76.196-1.364.588-1.812.392-.448.928-.672 1.608-.672.456 0 .836.108 1.14.324.304.216.508.52.612.912V4.4h1.272v6.552c0 .68-.22 1.216-.66 1.608-.432.4-1.024.6-1.776.6h-1.872zm1.704-3.684c.408 0 .728-.124.96-.372.24-.256.36-.612.36-1.068v-1.2c0-.448-.12-.796-.36-1.044-.232-.256-.552-.384-.96-.384-.424 0-.752.12-.984.36-.224.24-.336.568-.336.984V8.12c0 .424.112.756.336.996.232.24.56.36.984.36zM122.292 11V9.824h2.292V5.576h-2.052V4.4h3.348v5.424h2.124V11h-5.712zm2.832-7.74c-.28 0-.504-.072-.672-.216a.772.772 0 0 1-.252-.6c0-.256.084-.456.252-.6.168-.152.392-.228.672-.228s.504.076.672.228c.168.144.252.344.252.6a.772.772 0 0 1-.252.6c-.168.144-.392.216-.672.216zm4.4 7.74V4.4h1.284v1.26c.064-.432.248-.768.552-1.008.312-.248.716-.372 1.212-.372.656 0 1.18.212 1.572.636.392.416.588.98.588 1.692V11h-1.296V6.8c0-.456-.116-.804-.348-1.044-.232-.248-.548-.372-.948-.372-.408 0-.732.128-.972.384-.232.256-.348.612-.348 1.068V11h-1.296zm12.007 1.44c-1.184-.272-2.1-.816-2.748-1.632-.64-.816-.96-1.836-.96-3.06V5.6c0-1.216.32-2.232.96-3.048.648-.816 1.564-1.36 2.748-1.632v1.272a2.85 2.85 0 0 0-1.764 1.176c-.432.608-.648 1.352-.648 2.232v2.148c0 .88.216 1.628.648 2.244.432.608 1.02.996 1.764 1.164v1.284zm53.122 0v-1.284a2.862 2.862 0 0 0 1.764-1.164c.432-.616.648-1.364.648-2.244V5.6c0-.88-.216-1.624-.648-2.232a2.85 2.85 0 0 0-1.764-1.176V.92c1.184.272 2.096.816 2.736 1.632.648.816.972 1.832.972 3.048v2.148c0 1.224-.324 2.244-.972 3.06-.64.816-1.552 1.36-2.736 1.632z" fill="#438eff" fill-rule="nonzero"/></svg>